<svg xmlns="http://www.w3.org/2000/svg" width="20" height="20" viewBox="0 0 20 20">
    <g id="prefix__alert" transform="translate(-1417.253 -407.549)">
        <path id="prefix__Tracé_365" d="M1417.253 417.549a10 10 0 1 1 10 10 10.055 10.055 0 0 1-10-10zm10.967 4.078a.962.962 0 0 0-.977-.957.953.953 0 1 0 .977.957zm-.309-3.181l.12-5.165a.746.746 0 0 0-.788-.778.732.732 0 0 0-.787.768l.109 5.175a.647.647 0 0 0 .678.708.635.635 0 0 0 .668-.707z" data-name="Tracé 365" style="fill:#ff9300"/>
    </g>
</svg>
