<svg xmlns="http://www.w3.org/2000/svg" width="40" height="20.44" viewBox="0 0 40 20.44">
    <g id="prefix__Burger" transform="translate(-704.979 -235.522)">
        <path id="prefix__Tracé_370" d="M704.979 236.682a1.166 1.166 0 0 1 1.18-1.16H743.8a1.17 1.17 0 1 1 0 2.34h-37.64a1.17 1.17 0 0 1-1.181-1.18zm0 9.06a1.17 1.17 0 0 1 1.18-1.18H743.8a1.18 1.18 0 0 1 0 2.36h-37.64a1.17 1.17 0 0 1-1.181-1.18zm0 9.04a1.17 1.17 0 0 1 1.18-1.18H743.8a1.18 1.18 0 0 1 0 2.36h-37.64a1.169 1.169 0 0 1-1.181-1.18z" data-name="Tracé 370" style="fill:#00707f"/>
    </g>
</svg>
