<svg xmlns="http://www.w3.org/2000/svg" id="prefix__Calendar" width="14.34" height="13.109" viewBox="0 0 14.34 13.109">
    <path id="prefix__Tracé_71" d="M949.979 840.915v-8.874a1.89 1.89 0 0 1 2.135-2.121h10.069a1.893 1.893 0 0 1 2.135 2.121v8.874a1.891 1.891 0 0 1-2.135 2.114h-10.069a1.888 1.888 0 0 1-2.135-2.114zm12.262 1.216a1.062 1.062 0 0 0 1.18-1.18v-6.623a1.067 1.067 0 0 0-1.18-1.187h-10.192a1.056 1.056 0 0 0-1.173 1.187v6.623a1.051 1.051 0 0 0 1.173 1.18zm-9.28-4.278v-.427c0-.224.065-.282.29-.282h.427c.232 0 .29.058.29.282v.427c0 .225-.058.275-.29.275h-.427c-.225 0-.29-.05-.29-.275zm0 2.418v-.427c0-.224.065-.282.29-.282h.427c.232 0 .29.058.29.282v.427c0 .225-.058.275-.29.275h-.427c-.225 0-.29-.046-.29-.275zm2.454-4.835v-.427c0-.225.065-.282.29-.282h.427c.232 0 .29.058.29.282v.427c0 .224-.058.282-.29.282h-.432c-.22 0-.285-.058-.285-.282zm0 2.418v-.427c0-.224.065-.282.29-.282h.427c.232 0 .29.058.29.282v.427c0 .225-.058.275-.29.275h-.432c-.22-.001-.285-.051-.285-.276zm0 2.418v-.427c0-.224.065-.282.29-.282h.427c.232 0 .29.058.29.282v.427c0 .225-.058.275-.29.275h-.432c-.22-.001-.285-.047-.285-.276zm2.454-4.835v-.427c0-.225.065-.282.29-.282h.427c.232 0 .29.058.29.282v.427c0 .224-.058.282-.29.282h-.427c-.225-.001-.29-.059-.29-.283zm0 2.418v-.427c0-.224.065-.282.29-.282h.427c.232 0 .29.058.29.282v.427c0 .225-.058.275-.29.275h-.427c-.225-.002-.29-.052-.29-.277zm0 2.418v-.427c0-.224.065-.282.29-.282h.427c.232 0 .29.058.29.282v.427c0 .225-.058.275-.29.275h-.427c-.225-.002-.29-.048-.29-.277zm2.461-4.835v-.427c0-.225.058-.282.29-.282h.42c.232 0 .29.058.29.282v.427c0 .224-.058.282-.29.282h-.42c-.232-.002-.29-.06-.29-.284zm0 2.418v-.427c0-.224.058-.282.29-.282h.42c.232 0 .29.058.29.282v.427c0 .225-.058.275-.29.275h-.42c-.232-.003-.29-.053-.29-.278z" data-name="Tracé 71" transform="translate(-949.979 -829.92)" style="fill:#0f313d"/>
</svg>
