<svg xmlns="http://www.w3.org/2000/svg" width="20" height="20" viewBox="0 0 20 20">
    <g id="prefix__delete" transform="translate(-642 -358)">
        <circle id="prefix__Ellipse_75" cx="10" cy="10" r="10" data-name="Ellipse 75" transform="translate(642 358)" style="fill:#eaeced"/>
        <path id="prefix__Close" d="M1700.032 549.193l-3.446-3.446a.358.358 0 0 1 0-.5.353.353 0 0 1 .5 0l3.446 3.446 3.441-3.446a.358.358 0 0 1 .5 0 .353.353 0 0 1 0 .5l-3.446 3.446 3.446 3.446a.351.351 0 1 1-.5.494l-3.441-3.441-3.446 3.441a.351.351 0 0 1-.5-.494z" transform="translate(-1048.28 -181.211)" style="fill:#12303d"/>
    </g>
</svg>
