<svg xmlns="http://www.w3.org/2000/svg" width="19" height="23.235" viewBox="0 0 19 23.235">
    <path id="prefix__icon-download" d="M1276.76 275.35c2.128 0 3.219 1.08 3.219 3.186v11.012c0 2.1-1.091 3.187-3.219 3.187h-12.56c-2.128 0-3.219-1.081-3.219-3.187v-11.012c0-2.117 1.092-3.186 3.219-3.186h5.555v7l.043 1.419-.862-.884-1.855-1.921a.7.7 0 0 0-.513-.229.657.657 0 0 0-.676.666.639.639 0 0 0 .218.48l3.842 3.765a.726.726 0 0 0 .535.24.745.745 0 0 0 .535-.24l3.83-3.765a.639.639 0 0 0 .218-.48.657.657 0 0 0-.677-.666.7.7 0 0 0-.513.229l-1.855 1.921-.851.884.043-1.419v-7zm-6.952-5.195a.674.674 0 0 1 .666-.655.666.666 0 0 1 .666.655v5.645a.675.675 0 0 0-.666-.611.684.684 0 0 0-.666.611z" transform="translate(-1260.979 -269.5)" style="fill:#00707f"/>
</svg>
