<svg xmlns="http://www.w3.org/2000/svg" id="prefix__icon-search" width="16" height="16.153" viewBox="0 0 16 16.153">
    <path id="prefix__Tracé_353" d="M1560.247 639.634a6.443 6.443 0 1 1 12.885 0 6.373 6.373 0 0 1-1.421 4.026l4.315 4.315a.813.813 0 0 1-.57 1.37.8.8 0 0 1-.562-.23l-4.332-4.341a6.39 6.39 0 0 1-3.872 1.3 6.454 6.454 0 0 1-6.443-6.44zm11.8 0a5.362 5.362 0 1 0-5.357 5.366 5.389 5.389 0 0 0 5.362-5.366z" data-name="Tracé 353" transform="translate(-1560.247 -633.191)" style="fill:#c1c0c8"/>
</svg>
