<svg xmlns="http://www.w3.org/2000/svg" width="16" height="11.928" viewBox="0 0 16 11.928">
    <path id="prefix__icon-report" d="M1686.479 826.936v-5.76a1.086 1.086 0 0 1 1.24-1.208h1.961a1.088 1.088 0 0 1 1.247 1.208v5.76a1.088 1.088 0 0 1-1.247 1.208h-1.961a1.086 1.086 0 0 1-1.24-1.208zm5.779 0v-7.623a1.083 1.083 0 0 1 1.24-1.208h1.961a1.083 1.083 0 0 1 1.24 1.208v7.623a1.083 1.083 0 0 1-1.24 1.208h-1.959a1.083 1.083 0 0 1-1.242-1.208zm5.773 0v-9.507a1.09 1.09 0 0 1 1.247-1.214h1.954a1.09 1.09 0 0 1 1.247 1.214v9.507a1.088 1.088 0 0 1-1.247 1.208h-1.954a1.088 1.088 0 0 1-1.247-1.208z" transform="translate(-1686.479 -816.215)" style="fill:#c1c0c8"/>
</svg>
