<svg xmlns="http://www.w3.org/2000/svg" width="22" height="21.041" viewBox="0 0 22 21.041">
    <path id="prefix__icon-print" d="M1301.479 150.264v-8.478a2.467 2.467 0 0 1 2.766-2.726h16.467a2.438 2.438 0 0 1 2.766 2.726v8.478a2.441 2.441 0 0 1-2.766 2.736h-.948v1.588a1.721 1.721 0 0 1-1.977 1.977h-10.615a1.721 1.721 0 0 1-1.977-1.977V153h-.949a2.441 2.441 0 0 1-2.767-2.736zm3.915-12.613c0-1.468 1.028-2.127 2.536-2.127h9.1c1.568 0 2.546.659 2.546 2.127v.309h-14.18zm12.073 17.756c.749 0 1.058-.319 1.058-1.079v-7.789c0-.749-.31-1.068-1.058-1.068h-9.967c-.749 0-1.069.319-1.069 1.068v7.789c0 .759.319 1.079 1.069 1.079zm-9.078-6.681a.486.486 0 0 1 .509-.479h7.181a.484.484 0 0 1 .5.479.494.494 0 0 1-.5.5h-7.179a.5.5 0 0 1-.51-.5zm0 3.525a.5.5 0 0 1 .509-.5h7.181a.494.494 0 0 1 .5.5.484.484 0 0 1-.5.479h-7.179a.486.486 0 0 1-.51-.479z" transform="translate(-1301.479 -135.524)" style="fill:#00707f"/>
</svg>
