<svg xmlns="http://www.w3.org/2000/svg" width="25" height="12.683" viewBox="0 0 25 12.683">
    <path id="prefix__icon_-_Flotte" d="M88.33 185.764l-.632-2.737A1.344 1.344 0 0 0 86.541 182l-4.316-.395-3.21-4.158a1.01 1.01 0 0 0-.789-.395h-9.289a1 1 0 0 0-.842.474l-2.579 4.131-.579.342a3.357 3.357 0 0 0-1.579 2.842v1.447a.848.848 0 0 0 .842.842h1.605a2.855 2.855 0 0 0 2.816 2.605 2.817 2.817 0 0 0 2.816-2.605h8.841a2.855 2.855 0 0 0 2.816 2.605 2.817 2.817 0 0 0 2.816-2.605h1.342a1.123 1.123 0 0 0 1.078-1.366zm-19.709 2.473a1.368 1.368 0 0 1 0-2.737 1.359 1.359 0 0 1 1.368 1.368 1.393 1.393 0 0 1-1.368 1.369zm3.737-6.842h-4.316l1.474-2.342h2.842zm1.974 0v-2.342h3.395l1.816 2.342zm8.763 6.842a1.368 1.368 0 1 1 1.368-1.368 1.359 1.359 0 0 1-1.37 1.368z" data-name="icon - Flotte" transform="translate(-63.358 -177.054)" style="fill:#c1c0c8"/>
</svg>
