<svg xmlns="http://www.w3.org/2000/svg" width="59" height="50" viewBox="0 0 59 50">
    <g id="prefix__Search" transform="translate(20 15)">
        <rect id="prefix__Rectangle_403" width="59" height="50" data-name="Rectangle 403" rx="5" transform="translate(-20 -15)" style="fill:#00707f"/>
        <path id="prefix__icon-search" d="M1560.247 641.244a8.053 8.053 0 0 1 16.107 0 7.966 7.966 0 0 1-1.776 5.032l5.393 5.394a1.016 1.016 0 0 1-.712 1.713 1 1 0 0 1-.7-.287l-5.415-5.426a8.043 8.043 0 0 1-12.894-6.426zm14.755 0a6.7 6.7 0 1 0-6.7 6.7 6.736 6.736 0 0 0 6.698-6.7z" transform="translate(-1560.247 -633.191)" style="fill:#fff"/>
    </g>
</svg>
