<svg xmlns="http://www.w3.org/2000/svg" id="prefix__UI-Display" width="24.915" height="15.736" viewBox="0 0 24.915 15.736">
    <path id="prefix__Tracé_37" d="M1559.69 361.6c0-1.865 5.233-7.863 12.462-7.863 7.285 0 12.452 6 12.452 7.863s-5.139 7.873-12.452 7.873c-7.252 0-12.462-6.017-12.462-7.873zm17.639 0a5.182 5.182 0 0 0-10.363 0 5.182 5.182 0 0 0 10.363 0zm-6.959 0a1.777 1.777 0 1 1 1.791 1.763 1.786 1.786 0 0 1-1.791-1.763z" data-name="Tracé 37" transform="translate(-1559.69 -353.737)" style="fill:#c1c0c8;opacity:.5"/>
</svg>
